<svg xmlns="http://www.w3.org/2000/svg" viewBox="0 0 1024 1024" role="img" aria-label="Rakeez">
<!-- Rakeez — direction "SIGNAL". Letterforms outlined from Archivo (wght 800)
     and Rubik (wght 700), both SIL Open Font License 1.1.
     Outlined so the mark renders identically without the fonts installed.
     Do not re-typeset. Do not re-space. -->
<title>Rakeez</title>
<rect width="1024" height="1024" rx="229.1" fill="#121212"/><g transform="translate(237.7 277.2) scale(0.6856)" fill="#F5C518"><path d="M75 686V-1H474Q550 -1 601 27.5Q652 56 677.5 105.5Q703 155 703 216Q703 282 672.5 333.5Q642 385 587 414L725 686H525L411 444H254V686ZM254 311H439Q476 311 498.5 286.5Q521 262 521 221Q521 194 511 175Q501 156 483 145.5Q465 135 439 135H254Z"/></g>
</svg>
